<?xml version="1.0" encoding="utf-8"?>
<!-- Generator: Adobe Illustrator 18.0.0, SVG Export Plug-In . SVG Version: 6.00 Build 0)  -->
<!DOCTYPE svg PUBLIC "-//W3C//DTD SVG 1.1//EN" "http://www.w3.org/Graphics/SVG/1.1/DTD/svg11.dtd">
<svg version="1.1" id="start_here" xmlns="http://www.w3.org/2000/svg" xmlns:xlink="http://www.w3.org/1999/xlink" x="0px" y="0px"
	 viewBox="0 0 11 11" enable-background="new 0 0 11 11" xml:space="preserve">
<path fill="#096A09" d="M11,6.0893c-0.0955,0.0725-0.0691,0.1862-0.0867,0.2806c-0.2982,1.6003-1.13,2.8454-2.522,3.6931
	C7.7277,10.4671,7,10.7352,6.2178,10.827c-0.043,0.005-0.1-0.0143-0.1174,0.0516c-0.4163,0-0.8326,0-1.2489,0
	c-0.2161-0.129-0.4697-0.1084-0.7029-0.174C1.9959,10.1,0.654,8.7203,0.1168,6.5571C0.078,6.4012,0.1234,6.224,0,6.0893
	c0-0.431,0-0.8621,0-1.2931c0.1398-0.2367,0.1177-0.5137,0.1919-0.7681c0.3957-1.3568,1.1538-2.458,2.3778-3.1756
	c1.8131-1.063,3.6869-1.15,5.5678-0.1592c1.6209,0.8537,2.5102,2.2293,2.8085,4.0105C10.9542,4.7525,10.922,4.8207,11,4.8441
	C11,5.2592,11,5.6743,11,6.0893z M10.8582,5.4377c-0.0296-3.0023-2.3883-5.2868-5.3696-5.278
	C2.508,0.1684,0.1536,2.4431,0.1497,5.4385c-0.004,3.0131,2.3796,5.2895,5.3521,5.2899C8.485,10.7288,10.8385,8.4304,10.8582,5.4377
	z"/>
<path fill="#096A09" d="M5.2938,3.743c0.264,0,0.5283-0.0073,0.792,0.0026c0.1787,0.0067,0.2273-0.0866,0.1616-0.2187
	C6.1479,3.3268,6.1791,3.0998,6.0966,2.9052c-0.0951-0.2243,0.0909-0.433,0.3238-0.428c0.3413,0.0074,0.6479-0.0333,0.8904-0.3065
	c0.1223-0.1378,0.2572-0.0715,0.3604,0.0375C7.769,2.3114,7.7409,2.4197,7.6565,2.5288C7.4616,2.7808,7.2079,2.933,6.894,2.9637
	C6.675,2.9852,6.6421,3.0943,6.6996,3.2719c0.2019,0.6235,0.3735,1.2572,0.6342,1.861c0.1692,0.392,0.3444,0.7808,0.5764,1.1407
	C7.9632,6.3557,8.011,6.4382,8.019,6.5354C8.0276,6.6388,8.0388,6.7548,7.9112,6.797c-0.1178,0.039-0.2349,0.0437-0.3199-0.08
	C7.3252,6.3298,7.1176,5.9117,6.9305,5.4828c-0.057-0.1306-0.1042-0.2653-0.157-0.3977C6.7486,5.023,6.7085,4.9714,6.638,4.9643
	C6.5656,4.9571,6.5561,5.0254,6.5254,5.07C6.1658,5.5933,5.8046,6.1154,5.4441,6.6379c-0.0925,0.134-0.2127,0.2-0.3828,0.1986
	c-0.696-0.0058-1.3922,0.0006-2.0882-0.0067C2.8463,6.8285,2.6776,6.8628,2.6158,6.7067c-0.0621-0.1569-0.0164-0.3082,0.1029-0.44
	C2.8531,6.1184,2.906,5.923,2.9912,5.7464C3.2551,5.199,3.5177,4.651,3.7904,4.108c0.052-0.1035,0.0792-0.186,0.0066-0.2847
	C3.7153,3.7121,3.6118,3.7248,3.4962,3.7542C3.1129,3.8518,3.0406,3.7845,3.0546,3.3878c0.0076-0.2166,0.1516-0.2399,0.3083-0.2427
	c0.3359-0.006,0.672-0.0016,1.008-0.0018c0.1157-0.0001,0.2504,0.0126,0.2783,0.1329c0.0344,0.1486-0.1128,0.1663-0.2184,0.1971
	C4.3552,3.4954,4.2619,3.4985,4.2792,3.6144c0.017,0.1144,0.1064,0.1265,0.1986,0.1268c0.272,0.0009,0.5441,0.0003,0.8161,0.0003
	C5.2938,3.742,5.2938,3.7425,5.2938,3.743z M5.4779,4.2569c-0.2475,0-0.495-0.0013-0.7425,0.0007
	C4.6451,4.2583,4.5262,4.2699,4.5736,4.3945c0.185,0.4868,0.3866,0.9674,0.5812,1.4506C5.217,5.9998,5.2715,6.006,5.3694,5.8607
	c0.3184-0.4726,0.6475-0.9381,0.9737-1.4054c0.0908-0.1301,0.045-0.194-0.0989-0.197C5.9889,4.253,5.7334,4.2569,5.4779,4.2569z
	 M4.0584,6.3528c0.1679,0,0.3359-0.0032,0.5036,0.0009c0.1617,0.004,0.2213-0.0454,0.1565-0.2149
	C4.6481,5.9543,4.5669,5.7758,4.4858,5.5961C4.3838,5.3703,4.3187,5.128,4.237,4.8931C4.2126,4.8229,4.1722,4.7616,4.0988,4.7386
	c-0.0452-0.0141-0.0694,0.026-0.0875,0.0631C3.7926,5.2492,3.5703,5.695,3.3574,6.1453c-0.0639,0.1351-0.0076,0.212,0.1494,0.2091
	C3.6906,6.3509,3.8745,6.3535,4.0584,6.3528z"/>
<path fill="#096A09" d="M7.8058,7.7317c0.7735-0.0026,1.3237-0.6158,1.1683-1.3671C8.8696,5.859,8.5724,5.5763,7.9834,5.4697
	c-0.1966-0.0356-0.4185-0.3424-0.3862-0.538c0.0134-0.081,0.059-0.0777,0.1138-0.0856c0.577-0.0837,1.3719,0.35,1.6647,0.8754
	c0.568,1.0193,0.0807,2.0899-0.8724,2.4925C7.5179,8.6304,6.4466,8.1026,6.1166,7.0967C5.9277,6.5208,6.0629,6.0386,6.3926,5.5752
	C6.4984,5.4266,6.578,5.4437,6.6603,5.6064C6.77,5.8232,6.7854,6.0034,6.7027,6.2642C6.4518,7.0554,7.0938,7.7691,7.8058,7.7317z"/>
<path fill="#096A09" d="M2.8249,7.7384C3.2111,7.7577,3.5311,7.6168,3.762,7.3118c0.1722-0.2275,0.3986-0.158,0.6127-0.1433
	C4.4897,7.1764,4.468,7.2631,4.4275,7.3481C4.2232,7.7775,3.8974,8.0815,3.4533,8.2397c-0.789,0.2811-1.472,0.0675-1.9968-0.5516
	C0.7029,6.7991,1.029,5.6063,1.9756,5.0729c0.2831-0.1595,0.5877-0.2327,0.9141-0.2322C3.0317,4.8409,3.0757,4.921,3.0285,5.0175
	C2.926,5.2277,2.858,5.4279,2.5419,5.4948C1.6873,5.6756,1.4098,6.6816,1.8955,7.273C2.1377,7.5678,2.4253,7.7616,2.8249,7.7384z"/>
<path fill="#096A09" d="M4.1364,6.0324C4.0254,6.0063,3.8685,6.09,3.8534,5.8932C3.8446,5.778,4.0437,5.4474,4.1141,5.4515
	C4.207,5.4569,4.4655,5.7968,4.4428,5.9172C4.4061,6.1116,4.2343,5.9892,4.1364,6.0324z"/>
</svg>
