<?xml version="1.0" encoding="utf-8"?>
<!-- Generator: Adobe Illustrator 18.0.0, SVG Export Plug-In . SVG Version: 6.00 Build 0)  -->
<!DOCTYPE svg PUBLIC "-//W3C//DTD SVG 1.1//EN" "http://www.w3.org/Graphics/SVG/1.1/DTD/svg11.dtd">
<svg version="1.1" id="start_here" xmlns="http://www.w3.org/2000/svg" xmlns:xlink="http://www.w3.org/1999/xlink" x="0px" y="0px"
	 viewBox="0 0 15 15" enable-background="new 0 0 15 15" xml:space="preserve">
<path fill="#096A09" d="M15.0054,8.4442c-0.1302,0.0991-0.0943,0.2547-0.1182,0.3837c-0.4067,2.1887-1.5409,3.8917-3.439,5.051
	c-0.905,0.5527-1.8973,0.9193-2.9639,1.045c-0.0586,0.0069-0.1363-0.0196-0.16,0.0705c-0.5677,0-1.1354,0-1.7031,0
	c-0.2946-0.1764-0.6404-0.1483-0.9586-0.2379c-2.9354-0.8269-4.7654-2.714-5.498-5.6725c-0.0528-0.2132,0.009-0.4557-0.1592-0.6398
	c0-0.5895,0-1.179,0-1.7686C0.196,6.3519,0.1659,5.9731,0.2671,5.6251c0.5396-1.8557,1.5733-3.3618,3.2424-4.3433
	C5.9819-0.172,8.5371-0.2909,11.102,1.0641c2.2103,1.1676,3.423,3.049,3.8298,5.4851c0.0111,0.0666-0.0328,0.1599,0.0736,0.192
	C15.0054,7.3089,15.0054,7.8765,15.0054,8.4442z M14.812,7.5529c-0.0403-4.1062-3.2567-7.2307-7.3222-7.2187
	C3.4253,0.3462,0.2148,3.4573,0.2095,7.554c-0.0054,4.121,3.2449,7.2344,7.2984,7.2349
	C11.5759,14.7895,14.7851,11.6461,14.812,7.5529z"/>
<path fill="#096A09" d="M7.2242,5.2351c0.36,0,0.7205-0.01,1.08,0.0035c0.2437,0.0092,0.3099-0.1185,0.2204-0.2991
	C8.3889,4.6659,8.4314,4.3554,8.3189,4.0893C8.1892,3.7824,8.4428,3.497,8.7604,3.5039C9.2259,3.514,9.644,3.4584,9.9747,3.0847
	c0.1668-0.1885,0.3508-0.0977,0.4915,0.0513c0.1333,0.1412,0.0951,0.2893-0.02,0.4385c-0.2658,0.3446-0.6117,0.5527-1.0398,0.5948
	c-0.2986,0.0293-0.3435,0.1786-0.265,0.4215C9.4165,5.4436,9.6506,6.3102,10.006,7.136c0.2307,0.5361,0.4696,1.0679,0.786,1.5601
	c0.0722,0.1124,0.1374,0.2251,0.1484,0.3582c0.0117,0.1414,0.0269,0.3-0.1471,0.3577c-0.1607,0.0533-0.3203,0.0597-0.4362-0.1094
	c-0.3629-0.5295-0.6459-1.1014-0.901-1.688C9.3784,7.4361,9.314,7.2518,9.2419,7.0708c-0.0338-0.085-0.0886-0.1556-0.1848-0.1652
	C8.9585,6.8957,8.9455,6.9891,8.9036,7.0501C8.4133,7.7657,7.9207,8.4798,7.4291,9.1945C7.303,9.3778,7.139,9.4681,6.9071,9.4661
	C5.958,9.4582,5.0087,9.467,4.0595,9.457C3.8866,9.4552,3.6567,9.502,3.5724,9.2885C3.4877,9.0739,3.55,8.8671,3.7128,8.6868
	c0.1831-0.2028,0.2553-0.47,0.3715-0.7117c0.3599-0.7486,0.718-1.4981,1.0899-2.2407C5.245,5.5928,5.2821,5.48,5.1831,5.345
	C5.0717,5.1929,4.9305,5.2103,4.7729,5.2505C4.2502,5.3839,4.1516,5.2919,4.1707,4.7494C4.181,4.4531,4.3773,4.4213,4.5911,4.4174
	C5.0492,4.4093,5.5075,4.4153,5.9657,4.415c0.1578-0.0001,0.3415,0.0172,0.3795,0.1817C6.3921,4.8,6.1913,4.8241,6.0473,4.8663
	c-0.103,0.0302-0.2302,0.0344-0.2067,0.193c0.0232,0.1564,0.1451,0.1731,0.2708,0.1735c0.371,0.0012,0.7419,0.0004,1.1129,0.0004
	C7.2242,5.2338,7.2242,5.2345,7.2242,5.2351z M7.4752,5.938c-0.3375,0-0.675-0.0018-1.0125,0.0009
	C6.3395,5.94,6.1775,5.9558,6.2421,6.1262c0.2522,0.6658,0.5272,1.323,0.7925,1.984c0.0849,0.2115,0.1593,0.22,0.2928,0.0213
	c0.4342-0.6464,0.8829-1.283,1.3278-1.9221C8.779,6.0315,8.7165,5.9441,8.5203,5.94C8.1721,5.9327,7.8236,5.9379,7.4752,5.938z
	 M5.5395,8.8046c0.2289,0,0.458-0.0044,0.6868,0.0013C6.4468,8.8113,6.528,8.7437,6.4398,8.512
	C6.3436,8.2595,6.233,8.0154,6.1223,7.7696c-0.139-0.3088-0.2278-0.6402-0.3393-0.9615c-0.0333-0.096-0.0883-0.1799-0.1885-0.2113
	C5.5329,6.5775,5.4999,6.6324,5.4752,6.6831C5.1771,7.2952,4.8739,7.9049,4.5836,8.5207c-0.0871,0.1848-0.0104,0.29,0.2037,0.2859
	C5.038,8.8019,5.2888,8.8056,5.5395,8.8046z"/>
<path fill="#096A09" d="M10.6496,10.6905c1.0548-0.0036,1.805-0.8422,1.5932-1.8698c-0.1425-0.6914-0.5478-1.0781-1.351-1.2238
	c-0.2681-0.0486-0.5707-0.4683-0.5266-0.7358c0.0183-0.1108,0.0805-0.1062,0.1552-0.1171c0.7868-0.1145,1.8708,0.4787,2.2701,1.1972
	c0.7746,1.3941,0.1101,2.8583-1.1897,3.409c-1.3437,0.5694-2.8046-0.1524-3.2546-1.5283C8.0886,9.0344,8.2729,8.3748,8.7226,7.741
	c0.1442-0.2032,0.2528-0.1798,0.365,0.0427c0.1496,0.2965,0.1705,0.543,0.0578,0.8997C8.8032,9.7656,9.6787,10.7416,10.6496,10.6905
	z"/>
<path fill="#096A09" d="M3.8575,10.6997c0.5267,0.0264,0.963-0.1663,1.2778-0.5835c0.2348-0.3111,0.5435-0.2161,0.8355-0.196
	c0.1569,0.0108,0.1272,0.1293,0.0721,0.2456c-0.2786,0.5873-0.723,1.0031-1.3285,1.2195c-1.0759,0.3844-2.0073,0.0923-2.723-0.7544
	C0.9639,9.415,1.4086,7.7836,2.6994,7.0541c0.386-0.2182,0.8014-0.3182,1.2466-0.3176c0.1935,0.0003,0.2535,0.1098,0.1892,0.2419
	C3.9953,7.2658,3.9026,7.5396,3.4715,7.6311c-1.1654,0.2472-1.5438,1.6231-0.8814,2.432
	C2.9203,10.4663,3.3126,10.7314,3.8575,10.6997z"/>
<path fill="#096A09" d="M5.6459,8.3664C5.4945,8.3307,5.2805,8.4451,5.26,8.1759C5.248,8.0185,5.5195,7.5663,5.6155,7.5719
	c0.1267,0.0074,0.4791,0.4722,0.4482,0.6369C6.0136,8.4747,5.7794,8.3073,5.6459,8.3664z"/>
</svg>
