<?xml version="1.0" encoding="utf-8"?>
<!-- Generator: Adobe Illustrator 18.0.0, SVG Export Plug-In . SVG Version: 6.00 Build 0)  -->
<!DOCTYPE svg PUBLIC "-//W3C//DTD SVG 1.1//EN" "http://www.w3.org/Graphics/SVG/1.1/DTD/svg11.dtd">
<svg version="1.1" id="start_here" xmlns="http://www.w3.org/2000/svg" xmlns:xlink="http://www.w3.org/1999/xlink" x="0px" y="0px"
	 viewBox="0 0 15 15" enable-background="new 0 0 15 15" xml:space="preserve">
<path fill="#B87A57" d="M5.4117,5.3549c0.012-0.2885,0.2916-0.3566,0.4531-0.5039c0.2565-0.234,0.5286-0.4372,0.7325-0.7331
	c0.0979-0.142,0.3951-0.1588,0.429-0.3599c0.0233-0.1378,0.056-0.113,0.1512-0.1398c0.3212-0.0904,0.4675,0.1252,0.6519,0.3116
	c0.1865,0.1885,0.3675,0.3869,0.6108,0.5155c0.109,0.0576,0.1112,0.2245,0.2318,0.2952C8.7131,4.7646,8.6991,4.8766,8.789,4.843
	c0.0713-0.0266,0.1015-0.0925,0.1008-0.1735C8.8885,4.5251,8.8895,4.3804,8.8974,4.2362c0.011-0.2004,0.0583-0.3673,0.323-0.3085
	C9.2996,3.9453,9.3675,3.908,9.3985,3.8351c0.1672-0.3929,0.1719-0.8013-0.1879-1.1033C9.1075,2.6453,9.0443,2.1751,9.1355,2.0835
	C9.2106,2.008,9.3186,1.9919,9.4228,2.0033c0.0829,0.0091,0.0926,0.0856,0.0768,0.142C9.4082,2.4724,9.7146,2.6295,9.824,2.865
	c0.1275,0.2746,0.1352,0.5306,0.0868,0.799c-0.0312,0.1732-0.0294,0.2339,0.1408,0.2393c0.2033,0.0065,0.2595,0.121,0.2603,0.294
	c0.0012,0.2684,0.0029,0.5368,0,0.8052c-0.0009,0.0866,0.0015,0.1814,0.0872,0.2121c0.0823,0.0295,0.1472-0.0485,0.2076-0.1003
	c0.1592-0.1367,0.3017-0.3004,0.4791-0.4058c0.1244-0.0739,0.4026-0.1443,0.4258-0.0439c0.0436,0.1884,0.2682,0.0679,0.2696,0.2257
	c0.0008,0.0967,0.0488,0.1116,0.1342,0.1348c0.2159,0.0586,0.3134,0.2358,0.3902,0.4336c0.0236,0.0608,0.0514,0.1738,0.1695,0.1342
	c0.0986-0.0331,0.0513-0.1215,0.0566-0.1852c0.0086-0.1025,0.013-0.2075,0.0008-0.3092c-0.0184-0.1538,0.0299-0.2319,0.1855-0.2889
	c0.2736-0.1001,0.3555-0.3827,0.1733-0.6095c-0.1451-0.1806-0.1808-0.387-0.2024-0.5957c-0.0133-0.1289,0.048-0.2696,0.2039-0.291
	c0.1935-0.0266,0.1074,0.1386,0.1468,0.227c0.0801,0.1797-0.0272,0.461,0.2934,0.5252c0.0927,0.0185,0.0612,0.1802,0.0705,0.282
	c0.0168,0.1845-0.1004,0.4076,0.166,0.525c0.0718,0.0316,0.0366,0.1524,0.0377,0.2322c0.0039,0.289,0.0315,0.582-0.0057,0.8662
	c-0.057,0.4351,0.0753,0.7849,0.3716,1.0896c0.0128,0.0131,0.0114,0.0504,0.0224,0.0531c0.1579,0.0394,0.3087,0.1096,0.2599,0.2973
	c-0.0453,0.1743-0.2636,0.0539-0.3369,0.1208c-0.1461,0.1331-0.2347,0.328-0.2358,0.5402
	c-0.0028,0.5368,0.0009,1.0737-0.0021,1.6105c-0.0041,0.7392-0.1225,0.7599-0.7958,0.7787
	c-0.7664,0.0214-1.5344-0.0028-2.3015-0.0197c-0.1568-0.0035-0.2258,0.0633-0.2635,0.1921
	c-0.0675,0.2308-0.4287,0.5401-0.6609,0.5405c-1.4969,0.0029-2.9937,0.0025-4.4906-0.0013
	c-0.2141-0.0005-0.5498-0.2552-0.6336-0.4691c-0.0677-0.173-0.1798-0.241-0.3698-0.2392c-0.898,0.0083-1.7962,0.0022-2.6943,0.0068
	c-0.1865,0.001-0.3652-0.0268-0.5414-0.0819c-0.2305-0.072-0.3734-0.1971-0.3732-0.4697c0.0006-0.7219,0.0225-1.4441-0.0213-2.1663
	C0.524,7.5697,0.4844,7.5008,0.2952,7.5228c-0.1063,0.0124-0.2797,0.0229-0.2934-0.094c-0.0134-0.1143,0.0455-0.2704,0.1977-0.33
	c0.2376-0.093,0.3206-0.3593,0.5358-0.4801C0.8042,6.5803,0.7566,6.5062,0.756,6.4476C0.7514,6.004,0.7401,5.5602,0.7463,5.1167
	c0.002-0.1409-0.0464-0.3253,0.1714-0.3788C1.013,4.7144,0.945,4.6597,0.932,4.6236C0.8331,4.3482,0.9169,4.1058,1.1093,3.9191
	c0.1339-0.13,0.0614-0.2677,0.0895-0.4c0.0153-0.072-0.0485-0.1777,0.069-0.2075c0.0861-0.0218,0.18,0.0297,0.2188,0.0866
	c0.1043,0.1527,0.2811,0.2907,0.0319,0.5071C1.3814,4.0242,1.3249,4.2541,1.2706,4.445C1.2229,4.6128,1.3544,4.6936,1.5025,4.7313
	C1.7478,4.7938,1.7956,4.9818,1.7869,5.194C1.7828,5.2943,1.7167,5.447,1.8278,5.4659c0.1165,0.0198,0.2462-0.0807,0.3137-0.209
	C2.2912,4.9723,2.818,4.6438,3.0824,4.6714C3.3559,4.6999,3.461,4.9665,3.6701,5.0941c0.3071,0.1873,0.4934,0.5197,0.8067,0.7246
	c0.1783,0.1166,0.2496,0.0439,0.3621-0.0278C5.0431,5.6607,5.1871,5.451,5.415,5.3515C5.4149,5.3516,5.4212,5.3732,5.4212,5.3732
	L5.4117,5.3549z M8.064,9.8681c-0.0054,0-0.0109-0.0001-0.0163-0.0001c0-0.2364,0.0604-0.4949-0.0161-0.7032
	C7.9457,8.9307,7.4485,8.8076,7.1853,8.9081C7.0313,8.967,6.8871,9.0529,6.9008,9.2763c0.0182,0.2979,0.0007,0.5978,0.0005,0.8969
	c-0.0002,0.5687,0.0905,0.6549,0.664,0.6343c0.318-0.0114,0.498-0.194,0.4986-0.5062C8.0642,10.1569,8.064,10.0125,8.064,9.8681z
	 M11.4274,10.1766c0.3493-0.0034,0.4027-0.0603,0.4086-0.4242c0.003-0.1854,0.0058-0.3711,0.0192-0.5558
	c0.0218-0.3001-0.1413-0.477-0.4627-0.49c-0.2228-0.0091-0.3891,0.1826-0.3906,0.4521c-0.0011,0.1961-0.0013,0.3922-0.0001,0.5884
	C11.004,10.1244,11.0598,10.1802,11.4274,10.1766z M2.4951,9.4447c0,0.1448,0.0079,0.2378-0.0015,0.3289
	c-0.0251,0.243,0.0426,0.3972,0.3216,0.4042c0.3343,0.0084,0.5192-0.1156,0.5287-0.3894c0.0078-0.2252,0.0172-0.4525-0.0037-0.6761
	C3.2988,8.6706,2.9163,8.6221,2.638,8.8219C2.3732,9.012,2.5538,9.2765,2.4951,9.4447z"/>
<polygon fill="#FCFCFC" points="5.7087,6.5198 5.7182,6.5381 5.712,6.5164 "/>
</svg>
