<?xml version="1.0" encoding="utf-8"?>
<!-- Generator: Adobe Illustrator 18.0.0, SVG Export Plug-In . SVG Version: 6.00 Build 0)  -->
<!DOCTYPE svg PUBLIC "-//W3C//DTD SVG 1.1//EN" "http://www.w3.org/Graphics/SVG/1.1/DTD/svg11.dtd">
<svg version="1.1" id="start_here" xmlns="http://www.w3.org/2000/svg" xmlns:xlink="http://www.w3.org/1999/xlink" x="0px" y="0px"
	 viewBox="0 0 11 11" enable-background="new 0 0 11 11" xml:space="preserve">
<path fill="#B87A57" d="M4.187,4.5401c0.0092-0.222,0.2244-0.2744,0.3487-0.3878C4.733,3.9722,4.9424,3.8158,5.0993,3.5881
	c0.0753-0.1093,0.304-0.1222,0.3302-0.277c0.0179-0.1061,0.0431-0.087,0.1163-0.1076C5.793,3.134,5.9056,3.2999,6.0475,3.4434
	c0.1435,0.1451,0.2828,0.2977,0.47,0.3967c0.0839,0.0443,0.0856,0.1727,0.1784,0.2272C6.7276,4.0858,6.7168,4.172,6.786,4.1462
	c0.0548-0.0205,0.0781-0.0712,0.0776-0.1335c-0.001-0.1111-0.0002-0.2225,0.0059-0.3334C6.8779,3.525,6.9143,3.3966,7.118,3.4418
	c0.0609,0.0135,0.1132-0.0151,0.137-0.0713c0.1286-0.3024,0.1323-0.6166-0.1446-0.8491C7.0311,2.4549,6.9825,2.0931,7.0526,2.0226
	c0.0578-0.0581,0.1409-0.0704,0.2211-0.0617c0.0638,0.007,0.0713,0.0659,0.0591,0.1093C7.2625,2.3218,7.4983,2.4428,7.5825,2.624
	c0.0981,0.2113,0.104,0.4083,0.0668,0.6149c-0.024,0.1333-0.0226,0.18,0.1083,0.1842c0.1565,0.005,0.1997,0.0931,0.2003,0.2262
	c0.0009,0.2065,0.0023,0.4131,0,0.6196C7.9572,4.3355,7.9591,4.4084,8.0251,4.4321c0.0633,0.0227,0.1133-0.0373,0.1597-0.0772
	C8.3073,4.2496,8.417,4.1237,8.5535,4.0426c0.0957-0.0569,0.3098-0.111,0.3277-0.0338c0.0335,0.145,0.2064,0.0523,0.2075,0.1737
	C9.0894,4.2569,9.1262,4.2684,9.192,4.2863C9.3582,4.3314,9.4332,4.4678,9.4923,4.62c0.0182,0.0468,0.0395,0.1338,0.1304,0.1033
	c0.0759-0.0255,0.0395-0.0935,0.0436-0.1425c0.0066-0.0789,0.01-0.1597,0.0006-0.238c-0.0142-0.1184,0.023-0.1785,0.1428-0.2223
	c0.2105-0.077,0.2736-0.2945,0.1333-0.4691c-0.1117-0.139-0.1391-0.2978-0.1557-0.4585C9.777,3.0938,9.8242,2.9855,9.9442,2.969
	c0.1489-0.0205,0.0826,0.1067,0.1129,0.1747c0.0616,0.1383-0.0209,0.3548,0.2258,0.4041c0.0713,0.0143,0.0471,0.1387,0.0542,0.217
	c0.0129,0.142-0.0772,0.3137,0.1278,0.404c0.0553,0.0243,0.0282,0.1173,0.029,0.1787c0.003,0.2224,0.0242,0.4479-0.0044,0.6666
	c-0.0438,0.3348,0.0579,0.604,0.286,0.8385c0.0098,0.0101,0.0088,0.0388,0.0173,0.0409c0.1215,0.0303,0.2376,0.0844,0.2,0.2288
	C10.958,6.2564,10.79,6.1637,10.7335,6.2151c-0.1124,0.1024-0.1806,0.2524-0.1815,0.4157
	c-0.0021,0.4131,0.0007,0.8262-0.0016,1.2393c-0.0031,0.5688-0.0943,0.5848-0.6124,0.5992C9.3482,8.4858,8.7573,8.4672,8.167,8.4542
	C8.0463,8.4515,7.9932,8.5029,7.9642,8.602C7.9123,8.7796,7.6343,9.0177,7.4556,9.018C6.3037,9.0202,5.1518,9.0199,3.9999,9.017
	c-0.1648-0.0004-0.4231-0.1964-0.4876-0.361C3.4602,8.5228,3.374,8.4705,3.2278,8.4718C2.5367,8.4782,1.8455,8.4736,1.1544,8.4771
	c-0.1435,0.0007-0.281-0.0207-0.4166-0.063C0.5604,8.3587,0.4504,8.2624,0.4506,8.0526C0.451,7.497,0.4679,6.9413,0.4342,6.3856
	c-0.0085-0.1411-0.039-0.1942-0.1846-0.1772C0.1678,6.2179,0.0344,6.226,0.0239,6.1361C0.0136,6.0481,0.0589,5.928,0.176,5.8822
	c0.1828-0.0716,0.2467-0.2765,0.4123-0.3694C0.6413,5.483,0.6047,5.426,0.6042,5.381C0.6007,5.0396,0.592,4.6981,0.5967,4.3567
	C0.5983,4.2483,0.561,4.1064,0.7286,4.0652c0.0734-0.018,0.0211-0.0601,0.0111-0.0879C0.6636,3.7654,0.728,3.5788,0.8761,3.4351
	c0.1031-0.1,0.0472-0.206,0.0689-0.3078c0.0118-0.0554-0.0374-0.1368,0.0531-0.1597c0.0663-0.0168,0.1385,0.0229,0.1684,0.0666
	C1.2467,3.1517,1.3828,3.2579,1.191,3.4245C1.0855,3.5161,1.042,3.693,1.0003,3.8399C0.9636,3.969,1.0648,4.0312,1.1787,4.0602
	c0.1887,0.0481,0.2256,0.1928,0.2188,0.3561C1.3944,4.4935,1.3435,4.611,1.429,4.6255c0.0896,0.0152,0.1895-0.0621,0.2414-0.1608
	c0.1152-0.219,0.5206-0.4718,0.7241-0.4506C2.605,4.036,2.6859,4.2412,2.8468,4.3394C3.0831,4.4835,3.2265,4.7393,3.4676,4.897
	c0.1372,0.0898,0.1921,0.0338,0.2787-0.0214C3.9033,4.7754,4.0142,4.614,4.1895,4.5375c0,0.0001,0.0048,0.0167,0.0048,0.0167
	L4.187,4.5401z M6.228,8.0132c-0.0042,0-0.0083-0.0001-0.0125-0.0001c0-0.1819,0.0465-0.3808-0.0124-0.5411
	C6.137,7.2918,5.7544,7.197,5.5519,7.2744c-0.1185,0.0453-0.2295,0.1114-0.219,0.2833C5.347,7.787,5.3334,8.0178,5.3333,8.248
	C5.3331,8.6856,5.403,8.7519,5.8443,8.7361C6.0891,8.7273,6.2276,8.5868,6.228,8.3465C6.2282,8.2354,6.228,8.1243,6.228,8.0132z
	 M8.8163,8.2506c0.2688-0.0026,0.3099-0.0464,0.3144-0.3264c0.0023-0.1426,0.0044-0.2855,0.0148-0.4277
	c0.0168-0.2309-0.1087-0.367-0.356-0.3771c-0.1715-0.007-0.2995,0.1405-0.3006,0.3479C8.4881,7.6181,8.4879,7.7691,8.4888,7.92
	C8.4905,8.2104,8.5335,8.2533,8.8163,8.2506z M1.9426,7.6873c0,0.1114,0.0061,0.183-0.0012,0.2531
	c-0.0193,0.187,0.0328,0.3057,0.2475,0.3111c0.2572,0.0065,0.3996-0.089,0.4068-0.2997c0.006-0.1733,0.0133-0.3483-0.0029-0.5203
	C2.561,7.0916,2.2667,7.0543,2.0525,7.2081C1.8487,7.3544,1.9877,7.5579,1.9426,7.6873z"/>
</svg>
