<?xml version="1.0" encoding="utf-8"?>
<!-- Generator: Adobe Illustrator 18.0.0, SVG Export Plug-In . SVG Version: 6.00 Build 0)  -->
<!DOCTYPE svg PUBLIC "-//W3C//DTD SVG 1.1//EN" "http://www.w3.org/Graphics/SVG/1.1/DTD/svg11.dtd">
<svg version="1.1" id="start_here" xmlns="http://www.w3.org/2000/svg" xmlns:xlink="http://www.w3.org/1999/xlink" x="0px" y="0px"
	 viewBox="0 0 15 15" enable-background="new 0 0 15 15" xml:space="preserve">
<circle fill="#00AAFF" cx="7.5" cy="7.5" r="7.5"/>
<circle fill="#FFFFFF" cx="7.5" cy="7.5" r="6.5"/>
<path fill="#14AEFE" d="M11.8418,8.0159c0.0512,1.3359,0.1569,2.5653-0.7886,3.578c-0.4349,0.4659-0.9229,0.5872-1.0905-0.048
	c-0.2047-0.7761-0.6872-0.7063-1.222-0.7102c-0.7046-0.0051-1.4092-0.0071-2.1138,0.0008
	c-0.6321,0.0071-1.2519-0.1361-1.5491,0.7746c-0.1873,0.5741-0.6672,0.484-1.0751-0.0829
	c-0.6465-0.8986-0.8807-1.8305-0.8486-2.9344c0.049-1.6824,0.2056-3.3436,0.4605-5.0046c0.124-0.8082,0.552-1.2537,1.2931-1.4826
	c1.7602-0.5435,3.5167-0.5299,5.2743,0.0107c0.8152,0.2507,1.2693,0.7818,1.3236,1.6456
	C11.5975,5.2196,12.028,6.6489,11.8418,8.0159z M7.627,6.6949c0.5429,0,1.0857,0.0012,1.6286-0.0002
	c1.8259-0.0046,1.8258-0.0049,1.6241-1.7669c-0.0123-0.1078-0.0229-0.216-0.03-0.3243C10.7992,3.8355,10.4637,3.4209,9.62,3.454
	C8.5905,3.4944,7.5578,3.4476,6.5265,3.4496c-2.2062,0.0043-2.368,0.183-2.4712,2.3632c-0.03,0.6341,0.1618,0.9017,0.8033,0.886
	C5.7809,6.6761,6.7041,6.693,7.627,6.6949z M7.3527,3.0815c0-0.0015,0.0001-0.0029,0.0001-0.0044
	c0.5983,0,1.1968,0.0072,1.795-0.0037c0.2267-0.0041,0.4316-0.084,0.3952-0.3727C9.5191,2.5122,9.3498,2.4495,9.1967,2.4485
	C8.0548,2.4411,6.9127,2.4412,5.7709,2.4549C5.6248,2.4567,5.4587,2.5255,5.4481,2.732C5.4317,3.0516,5.6866,3.0652,5.8845,3.0742
	C6.373,3.0965,6.8632,3.0815,7.3527,3.0815z M4.5187,9.3275c0.3237,0.0144,0.534-0.1347,0.5782-0.4437
	C5.1392,8.5884,5.02,8.347,4.6999,8.2903c-0.387-0.0685-0.6441,0.1205-0.6693,0.5022C4.0106,9.0948,4.2238,9.277,4.5187,9.3275z
	 M10.9958,8.787c-0.048-0.3422-0.2385-0.5251-0.542-0.5145C10.1603,8.2826,9.9267,8.457,9.9224,8.7685
	C9.917,9.1601,10.1648,9.3507,10.5468,9.316C10.8701,9.2867,10.9828,9.0506,10.9958,8.787z"/>
</svg>
