<?xml version="1.0" encoding="utf-8"?>
<!-- Generator: Adobe Illustrator 18.0.0, SVG Export Plug-In . SVG Version: 6.00 Build 0)  -->
<!DOCTYPE svg PUBLIC "-//W3C//DTD SVG 1.1//EN" "http://www.w3.org/Graphics/SVG/1.1/DTD/svg11.dtd">
<svg version="1.1" id="start_here" xmlns="http://www.w3.org/2000/svg" xmlns:xlink="http://www.w3.org/1999/xlink" x="0px" y="0px"
	 viewBox="0 0 11 11" enable-background="new 0 0 11 11" xml:space="preserve">
<circle fill="#FF8B00" cx="5.5" cy="5.5" r="5.5"/>
<circle fill="#FFFFFF" cx="5.5" cy="5.5" r="4.7667"/>
<path fill="#FF8B00" d="M8.8524,6.0442c0.0395,1.0301,0.121,1.978-0.6081,2.7589C7.909,9.1624,7.5327,9.256,7.4035,8.7661
	C7.2457,8.1677,6.8736,8.2215,6.4612,8.2185c-0.5433-0.004-1.0866-0.0055-1.6299,0.0006C4.3439,8.2246,3.866,8.1142,3.6369,8.8164
	c-0.1444,0.4427-0.5145,0.3732-0.829-0.0639C2.3094,8.0596,2.1288,7.341,2.1536,6.4898c0.0378-1.2972,0.1585-2.5782,0.3551-3.859
	c0.0956-0.6231,0.4257-0.9667,0.9971-1.1432C4.863,1.0686,6.2174,1.0791,7.5727,1.496c0.6286,0.1933,0.9787,0.6028,1.0206,1.2689
	C8.664,3.8881,8.9959,4.9901,8.8524,6.0442z M5.6024,5.0256c0.4186,0,0.8372,0.0009,1.2557-0.0002
	C8.2661,5.0219,8.266,5.0216,8.1104,3.663c-0.0095-0.0831-0.0177-0.1665-0.0232-0.25C8.0485,2.8208,7.7898,2.5011,7.1392,2.5266
	C6.3454,2.5578,5.5491,2.5217,4.7539,2.5233C3.0527,2.5266,2.928,2.6644,2.8484,4.3454C2.8252,4.8344,2.9731,5.0407,3.4677,5.0286
	C4.1789,5.0111,4.8908,5.0241,5.6024,5.0256z M5.3909,2.2394c0-0.0011,0-0.0022,0.0001-0.0034c0.4614,0,0.9229,0.0056,1.3841-0.0028
	C6.9498,2.23,7.1079,2.1684,7.0797,1.9458c-0.0184-0.1454-0.1489-0.1937-0.267-0.1945C5.9323,1.7456,5.0517,1.7457,4.1713,1.7563
	C4.0586,1.7576,3.9305,1.8107,3.9223,1.9699C3.9097,2.2164,4.1062,2.2268,4.2588,2.2338C4.6355,2.251,5.0134,2.2394,5.3909,2.2394z
	 M3.2057,7.0556c0.2496,0.0111,0.4118-0.1039,0.4459-0.3421c0.0326-0.2278-0.0594-0.414-0.3062-0.4577
	C3.047,6.203,2.8488,6.3487,2.8293,6.6431C2.8139,6.8762,2.9783,7.0167,3.2057,7.0556z M8.2,6.6388
	C8.163,6.3749,8.0162,6.2339,7.7821,6.242C7.5558,6.2498,7.3757,6.3843,7.3724,6.6246c-0.0042,0.302,0.1869,0.4489,0.4815,0.4222
	C8.1031,7.0241,8.19,6.8421,8.2,6.6388z"/>
</svg>
