<?xml version="1.0" encoding="utf-8"?>
<!-- Generator: Adobe Illustrator 18.0.0, SVG Export Plug-In . SVG Version: 6.00 Build 0)  -->
<!DOCTYPE svg PUBLIC "-//W3C//DTD SVG 1.1//EN" "http://www.w3.org/Graphics/SVG/1.1/DTD/svg11.dtd">
<svg version="1.1" id="start_here" xmlns="http://www.w3.org/2000/svg" xmlns:xlink="http://www.w3.org/1999/xlink" x="0px" y="0px"
	 viewBox="0 0 15 15" enable-background="new 0 0 15 15" xml:space="preserve">
<g>
	<g>
		<circle fill="#29338B" cx="7.5" cy="7.5" r="7.5"/>
		<circle fill="#FFFFFF" cx="7.5" cy="7.5" r="6.5"/>
	</g>
	<path fill="#29338B" d="M2.1125,8.9028c0.0484-0.8903-0.0646-1.516,0.6919-2.1356C3.3809,6.295,3.4555,5.3128,3.7423,4.554
		c0.2953-0.7813,0.5842-1.556,1.7379-1.5395c0.2779,0.004,0.4005-0.1678,0.4311-0.401c0.0722-0.5513,0.4791-0.6333,0.9913-0.61
		c0.4569,0.0208,0.9168,0.0206,1.3737-0.0002c0.4885-0.0222,0.86,0.0829,0.9266,0.5844C9.246,2.9127,9.4506,3.0264,9.785,3.0263
		c0.7465-0.0003,1.1314,0.4259,1.3701,0.9969c0.1921,0.4595,0.3287,0.9393,0.5403,1.3906c0.2903,0.6194,0.2346,1.4135,1.094,1.7612
		c0.2017,0.0816,0.2044,0.3602,0.2056,0.5704c0.0039,0.6762,0.0098,1.3525-0.0022,2.0286c-0.0106,0.5907-0.511,1.0006-0.746,1.5103
		c-0.2277,0.4937-1.8388,0.2394-1.9678-0.3046c-0.108-0.4553-0.354-0.5092-0.772-0.5046c-1.3167,0.0143-2.6339,0.0141-3.9506,0.0001
		c-0.3964-0.0042-0.6198,0.065-0.6983,0.4818c-0.1461,0.7757-0.866,0.4688-1.3847,0.5318
		c-0.4989,0.0605-0.6503-0.2138-0.8458-0.5813C2.2514,10.2009,1.9686,9.5032,2.1125,8.9028z M7.5627,6.9744
		c0.8284,0,1.6569,0.0003,2.4853-0.0001c1.0399-0.0005,1.0773-0.0127,0.7301-0.9102C9.8024,3.5416,10.4495,4.025,7.7439,3.9977
		c-2.7776-0.0281-2.7541-0.0003-3.515,2.4195C4.056,6.9668,4.2939,6.9808,4.7346,6.9771C5.6772,6.969,6.62,6.9746,7.5627,6.9744z
		 M4.9617,8.8018C4.9476,8.2497,4.6532,7.9311,4.0823,7.9084c-0.562-0.0223-0.9335,0.246-0.9603,0.7795
		C3.0942,9.2427,3.4102,9.5833,4.0306,9.594C4.6091,9.604,4.8998,9.283,4.9617,8.8018z M11.0531,9.611
		c0.5691-0.0409,0.9226-0.2904,0.948-0.8174c0.0275-0.571-0.3229-0.8897-0.9306-0.8865c-0.5634,0.003-0.9021,0.3066-0.901,0.8389
		C10.1706,9.271,10.5013,9.5413,11.0531,9.611z"/>
</g>
</svg>
