<?xml version="1.0" encoding="utf-8"?>
<!-- Generator: Adobe Illustrator 18.0.0, SVG Export Plug-In . SVG Version: 6.00 Build 0)  -->
<!DOCTYPE svg PUBLIC "-//W3C//DTD SVG 1.1//EN" "http://www.w3.org/Graphics/SVG/1.1/DTD/svg11.dtd">
<svg version="1.1" id="start_here" xmlns="http://www.w3.org/2000/svg" xmlns:xlink="http://www.w3.org/1999/xlink" x="0px" y="0px"
	 viewBox="0 0 11 11" enable-background="new 0 0 11 11" xml:space="preserve">
<g>
	<g>
		<g>
			<circle fill="#29338B" cx="5.5" cy="5.5" r="5.5"/>
			<circle fill="#FFFFFF" cx="5.5" cy="5.5" r="4.7667"/>
		</g>
		<path fill="#29338B" d="M1.5491,6.5287C1.5847,5.8759,1.5018,5.417,2.0565,4.9626C2.4793,4.6163,2.534,3.896,2.7443,3.3396
			c0.2165-0.573,0.4284-1.1411,1.2745-1.129c0.2038,0.0029,0.2937-0.123,0.3161-0.2941c0.053-0.4043,0.3513-0.4644,0.7269-0.4474
			C5.397,1.4845,5.7342,1.4843,6.0693,1.4691C6.4276,1.4528,6.7,1.5299,6.7488,1.8976C6.7804,2.136,6.9305,2.2194,7.1757,2.2193
			C7.7231,2.219,8.0054,2.5316,8.1805,2.9503c0.1409,0.337,0.241,0.6888,0.3962,1.0198c0.2129,0.4542,0.1721,1.0366,0.8023,1.2915
			C9.5269,5.3215,9.5288,5.5258,9.5297,5.68c0.0029,0.4959,0.0072,0.9919-0.0016,1.4876C9.5203,7.6007,9.1534,7.9013,8.981,8.2752
			c-0.1669,0.362-1.3485,0.1756-1.443-0.2233C7.4588,7.7179,7.2783,7.6784,6.9718,7.6817C6.0061,7.6922,5.0402,7.6921,4.0746,7.6818
			C3.7839,7.6787,3.6201,7.7294,3.5625,8.0351c-0.1071,0.5688-0.635,0.3438-1.0154,0.39C2.1812,8.4695,2.0702,8.2683,1.9268,7.9988
			C1.6511,7.4806,1.4436,6.969,1.5491,6.5287z M5.546,5.1146c0.6075,0,1.215,0.0002,1.8226-0.0001
			c0.7626-0.0004,0.79-0.0093,0.5354-0.6675C7.1884,2.5972,7.663,2.9517,5.6789,2.9316C3.6419,2.911,3.6592,2.9314,3.1012,4.7059
			C2.9744,5.109,3.1488,5.1193,3.4721,5.1165C4.1633,5.1106,4.8547,5.1147,5.546,5.1146z M3.6385,6.4546
			C3.6282,6.0498,3.4124,5.8161,2.9937,5.7995C2.5815,5.7831,2.3091,5.9799,2.2895,6.3711C2.2691,6.778,2.5008,7.0277,2.9558,7.0356
			C3.38,7.0429,3.5932,6.8075,3.6385,6.4546z M8.1056,7.048c0.4173-0.03,0.6766-0.2129,0.6952-0.5994
			C8.821,6.0299,8.564,5.7961,8.1184,5.7985C7.7052,5.8007,7.4568,6.0233,7.4576,6.4137C7.4584,6.7987,7.701,6.997,8.1056,7.048z"/>
	</g>
</g>
</svg>
