<?xml version="1.0" encoding="utf-8"?>
<!-- Generator: Adobe Illustrator 18.0.0, SVG Export Plug-In . SVG Version: 6.00 Build 0)  -->
<!DOCTYPE svg PUBLIC "-//W3C//DTD SVG 1.1//EN" "http://www.w3.org/Graphics/SVG/1.1/DTD/svg11.dtd">
<svg version="1.1" id="start_here" xmlns="http://www.w3.org/2000/svg" xmlns:xlink="http://www.w3.org/1999/xlink" x="0px" y="0px"
	 viewBox="0 0 15 15" enable-background="new 0 0 15 15" xml:space="preserve">
<circle fill="#FC0000" cx="7.5" cy="7.5" r="7.5"/>
<circle fill="#FFFFFF" cx="7.5" cy="7.5" r="6.5"/>
<path fill="#FE0D0D" d="M9.0625,0.3125c-0.6771,0.2494-1.3542,0.2813-2.0313,0C7.7083,0.3125,8.3854,0.3125,9.0625,0.3125z"/>
<path fill="#FE0D0D" d="M7.4681,2.3768c0.5466,0.0005,1.0933-0.0036,1.6398,0.0026c0.2064,0.0023,0.4739-0.0044,0.5193,0.2169
	c0.0739,0.3599,0.3701,0.451,0.6763,0.5854c0.8008,0.3513,1.1266,0.998,1.2548,1.7367c0.2863,1.6493,0.4997,3.3043,0.4276,4.9788
	c-0.0169,0.3926,0.0216,0.7902-0.3323,1.1047c-0.1151,0.1022-0.0932,0.2562-0.1181,0.3931
	c-0.1028,0.565-0.1416,0.5887-0.8024,0.5988c-0.7658,0.0116-0.7748,0.015-1.0512-0.5861c-0.0854-0.1858-0.2172-0.2349-0.4171-0.2345
	c-1.1973,0.0023-2.3947,0.0056-3.592-0.0022c-0.2816-0.0018-0.4476,0.0763-0.4672,0.3424c-0.0324,0.4392-0.3599,0.5067-0.767,0.4823
	c-0.2074-0.0125-0.4162-0.0064-0.6244-0.0074c-0.1806-0.0008-0.3285-0.0901-0.3458-0.2302
	c-0.0814-0.6575-0.576-1.1895-0.5779-1.8963c-0.0045-1.675,0.1685-3.33,0.4583-4.9781C3.4917,4.0698,3.8763,3.3764,4.8321,3.081
	c0.1915-0.0592,0.3306-0.1461,0.365-0.3207C5.2712,2.3851,5.581,2.3751,5.9063,2.3759C6.4269,2.3772,6.9475,2.3763,7.4681,2.3768z
	 M7.466,7.1755c0.8586,0,1.7173,0.0063,2.5758-0.0019c0.727-0.0069,0.8818-0.1483,0.7868-0.7951
	c-0.0739-0.5029-0.2272-0.9961-0.3287-1.4962c-0.1293-0.637-0.6186-0.8783-1.2725-0.9151C8.7088,3.9379,8.1872,3.9449,7.667,3.945
	c-0.6504,0.0001-1.3016-0.007-1.9509,0.0199C5.0697,3.9916,4.553,4.1991,4.4144,4.8447C4.3073,5.3439,4.1523,5.8363,4.0736,6.3385
	C3.9664,7.0222,4.1239,7.1681,4.8902,7.174C5.7487,7.1806,6.6074,7.1755,7.466,7.1755z M10.6834,9.3884
	c0.0051-0.412-0.316-0.6985-0.7766-0.6929C9.4911,8.7006,9.1642,8.9776,9.1439,9.3421c-0.0224,0.401,0.2952,0.7052,0.7482,0.7168
	C10.3691,10.071,10.6782,9.8091,10.6834,9.3884z M4.941,10.0602c0.4606,0.015,0.7987-0.2597,0.8141-0.6616
	c0.015-0.3891-0.3333-0.7046-0.7768-0.7037C4.555,8.6958,4.2417,8.9574,4.2171,9.3307C4.1893,9.7518,4.4804,10.0451,4.941,10.0602z
	 M5.8042,3.0831C6.7883,3.1896,7.7368,3.1215,8.681,3.1277c0.0996,0.0007,0.2118-0.0405,0.2192-0.1468
	c0.0102-0.1476-0.1227-0.1983-0.2533-0.1981C7.7963,2.7841,6.9457,2.7917,6.0953,2.8052C6.0019,2.8067,5.8953,2.8397,5.8042,3.0831z
	"/>
</svg>
