<?xml version="1.0" encoding="utf-8"?>
<!-- Generator: Adobe Illustrator 18.0.0, SVG Export Plug-In . SVG Version: 6.00 Build 0)  -->
<!DOCTYPE svg PUBLIC "-//W3C//DTD SVG 1.1//EN" "http://www.w3.org/Graphics/SVG/1.1/DTD/svg11.dtd">
<svg version="1.1" id="start_here" xmlns="http://www.w3.org/2000/svg" xmlns:xlink="http://www.w3.org/1999/xlink" x="0px" y="0px"
	 viewBox="0 0 11 11" enable-background="new 0 0 11 11" xml:space="preserve">
<circle fill="#FF0000" cx="5.5" cy="5.5" r="5.5"/>
<circle fill="#FFFFFF" cx="5.5" cy="5.5" r="4.7667"/>
<path fill="#FE0D0D" d="M5.7118,2.0177C6.1084,2.0181,6.505,2.0151,6.9016,2.0196C7.0513,2.0213,7.2454,2.0164,7.2783,2.177
	C7.332,2.4381,7.5468,2.5042,7.769,2.6017c0.581,0.2549,0.8174,0.7241,0.9104,1.2601c0.2077,1.1967,0.3626,2.3975,0.3103,3.6125
	C8.9775,7.7591,9.0055,8.0476,8.7487,8.2758C8.6652,8.35,8.681,8.4617,8.663,8.561c-0.0746,0.41-0.1027,0.4272-0.5822,0.4345
	C7.5251,9.0039,7.5185,9.0063,7.318,8.5702C7.256,8.4354,7.1604,8.3998,7.0154,8.4001C6.1466,8.4017,5.2778,8.4041,4.4091,8.3985
	c-0.2043-0.0013-0.3248,0.0553-0.339,0.2484C4.0466,8.9656,3.8089,9.0146,3.5135,8.9968c-0.1505-0.009-0.302-0.0046-0.453-0.0053
	c-0.131-0.0006-0.2383-0.0653-0.2509-0.167c-0.059-0.4771-0.4179-0.8631-0.4193-1.3759C2.387,6.2332,2.5125,5.0325,2.7228,3.8366
	c0.1038-0.5906,0.3829-1.0937,1.0764-1.308C3.9381,2.4857,4.039,2.4226,4.064,2.296c0.0538-0.2723,0.2785-0.2795,0.5146-0.2789
	C4.9563,2.018,5.3341,2.0173,5.7118,2.0177z M5.7103,5.4995c0.623,0,1.246,0.0046,1.8689-0.0014
	c0.5275-0.005,0.6398-0.1076,0.5709-0.5769C8.0965,4.5563,7.9853,4.1984,7.9116,3.8355c-0.0938-0.4622-0.4488-0.6373-0.9233-0.664
	C6.612,3.1504,6.2336,3.1555,5.8561,3.1556C5.3842,3.1557,4.9117,3.1505,4.4406,3.17c-0.469,0.0194-0.8439,0.1699-0.9444,0.6384
	C3.4184,4.1705,3.3059,4.5278,3.2488,4.8922C3.171,5.3882,3.2853,5.4941,3.8413,5.4984C4.4643,5.5032,5.0873,5.4995,5.7103,5.4995z
	 M8.0447,7.1051c0.0037-0.2989-0.2293-0.5068-0.5635-0.5027C7.1796,6.606,6.9424,6.8071,6.9277,7.0715
	C6.9114,7.3625,7.1419,7.5832,7.4706,7.5916C7.8166,7.6004,8.0409,7.4104,8.0447,7.1051z M3.8782,7.5925
	c0.3342,0.0109,0.5795-0.1884,0.5907-0.48c0.0109-0.2823-0.2418-0.5112-0.5636-0.5106C3.5981,6.6025,3.3708,6.7924,3.353,7.0633
	C3.3328,7.3688,3.544,7.5816,3.8782,7.5925z M4.5045,2.5301C5.2186,2.6074,5.9068,2.558,6.5919,2.5625
	C6.6641,2.563,6.7455,2.5331,6.7509,2.456c0.0074-0.1071-0.089-0.1439-0.1838-0.1437c-0.6171,0.001-1.2343,0.0065-1.8514,0.0163
	C4.648,2.3296,4.5706,2.3536,4.5045,2.5301z"/>
</svg>
