<?xml version="1.0" encoding="utf-8"?>
<!-- Generator: Adobe Illustrator 18.0.0, SVG Export Plug-In . SVG Version: 6.00 Build 0)  -->
<!DOCTYPE svg PUBLIC "-//W3C//DTD SVG 1.1//EN" "http://www.w3.org/Graphics/SVG/1.1/DTD/svg11.dtd">
<svg version="1.1" id="start_here" xmlns="http://www.w3.org/2000/svg" xmlns:xlink="http://www.w3.org/1999/xlink" x="0px" y="0px"
	 viewBox="0 0 11 11" enable-background="new 0 0 11 11" xml:space="preserve">
<circle fill="#FF0000" cx="5.5" cy="5.5" r="5.5"/>
<circle fill="#FFFFFF" cx="5.5" cy="5.5" r="4.7667"/>
<path fill="#F01D1D" d="M8.0002,4.937c0.0002,0.6511-0.0093,1.3024,0.0043,1.9532c0.0066,0.3176-0.0604,0.6004-0.2886,0.8211
	C7.5697,7.8527,7.5644,7.9471,7.7342,8.0651c0.1083,0.0753,0.2031,0.1726,0.2947,0.2688C8.1527,8.4638,8.1443,8.6072,8.0314,8.738
	C7.9103,8.8784,7.7583,8.859,7.6306,8.7614C7.4057,8.5897,7.1848,8.4099,6.9814,8.2137C6.8128,8.0511,6.6312,7.9842,6.3982,7.9902
	C5.9143,8.0025,5.4295,8.0071,4.946,7.9887C4.6898,7.979,4.5,8.0644,4.3212,8.236C4.1414,8.4087,3.9395,8.5582,3.7503,8.7215
	C3.6076,8.8448,3.4576,8.8873,3.3065,8.7508C3.162,8.6202,3.1829,8.4557,3.3543,8.2691C3.388,8.2325,3.4299,8.2036,3.4667,8.1698
	c0.2664-0.2443,0.2638-0.2428,0.0552-0.556c-0.1318-0.198-0.1988-0.4113-0.1973-0.658c0.0081-1.3522,0.0002-2.7046,0.0058-4.0568
	C3.333,2.2867,3.642,1.9572,4.2675,1.9164c0.1879-0.0123,0.2597-0.0721,0.3031-0.2456c0.047-0.1877,0.1658-0.3333,0.3868-0.3252
	C5.164,1.3531,5.3181,1.4689,5.3532,1.6642c0.039,0.2167,0.1739,0.2069,0.3284,0.2079c0.1427,0.001,0.2517-0.0128,0.2905-0.1926
	c0.047-0.2175,0.2024-0.3424,0.4336-0.332c0.2199,0.0099,0.3297,0.169,0.362,0.3559c0.0372,0.2149,0.1749,0.197,0.3284,0.2088
	C7.6744,1.9567,7.9921,2.296,7.9983,2.8835C8.0056,3.568,8,4.2525,8.0002,4.937z M5.6688,3.041
	c-0.4158,0-0.8317-0.005-1.2474,0.0014C4.0185,3.0487,3.9388,3.134,3.9304,3.5488C3.9257,3.7815,3.9272,4.0145,3.9301,4.2473
	C3.9359,4.716,3.9985,4.7801,4.4875,4.7884C4.8866,4.7951,5.2858,4.7898,5.685,4.7898c0.4158,0,0.832,0.0103,1.2473-0.0033
	C7.3166,4.7739,7.39,4.6895,7.3981,4.3059c0.0057-0.266,0.0073-0.5324-0.0003-0.7983c-0.0107-0.3742-0.0966-0.4587-0.4816-0.465
	C6.5005,3.0357,6.0846,3.041,5.6688,3.041z M5.6921,2.1625c0,0.0044,0,0.0088,0,0.0132c-0.1989,0-0.4-0.0183-0.5959,0.0058
	c-0.158,0.0194-0.2745,0.1298-0.2776,0.304C4.8151,2.6779,4.9508,2.7433,5.1149,2.7478C5.463,2.7574,5.8116,2.7655,6.1595,2.7561
	c0.1659-0.0044,0.3549-0.0353,0.3489-0.265C6.5025,2.2668,6.3415,2.1792,6.1407,2.1647C5.9919,2.1539,5.8417,2.1625,5.6921,2.1625z
	 M4.8211,6.9531C4.8188,6.7169,4.6168,6.5109,4.3795,6.5029c-0.2721-0.0091-0.4707,0.1898-0.4652,0.466
	c0.005,0.2539,0.1852,0.4423,0.4308,0.4505C4.6011,7.428,4.8236,7.21,4.8211,6.9531z M6.9885,6.5036
	C6.7491,6.4922,6.5329,6.6772,6.5088,6.9139C6.4832,7.1648,6.6924,7.4075,6.9445,7.4193C7.1944,7.431,7.389,7.2599,7.4119,7.008
	C7.4376,6.7272,7.2607,6.5165,6.9885,6.5036z"/>
</svg>
