<?xml version="1.0" encoding="utf-8"?>
<!-- Generator: Adobe Illustrator 18.0.0, SVG Export Plug-In . SVG Version: 6.00 Build 0)  -->
<!DOCTYPE svg PUBLIC "-//W3C//DTD SVG 1.1//EN" "http://www.w3.org/Graphics/SVG/1.1/DTD/svg11.dtd">
<svg version="1.1" id="start_here" xmlns="http://www.w3.org/2000/svg" xmlns:xlink="http://www.w3.org/1999/xlink" x="0px" y="0px"
	 viewBox="0 0 15 15" enable-background="new 0 0 15 15" xml:space="preserve">
<circle fill="#FC0000" cx="7.5" cy="7.5" r="7.5"/>
<circle fill="#FFFFFF" cx="7.5" cy="7.5" r="6.5"/>
<path fill="#FE0D0D" d="M9.0625,0.3125c-0.6771,0.2494-1.3542,0.2813-2.0313,0C7.7083,0.3125,8.3854,0.3125,9.0625,0.3125z"/>
<path fill="#F01D1D" d="M10.8387,6.8813c0.0003,0.8849-0.0127,1.77,0.0058,2.6545c0.009,0.4316-0.0821,0.8159-0.3922,1.1159
	c-0.1986,0.1921-0.2058,0.3205,0.0249,0.4807c0.1472,0.1023,0.276,0.2346,0.4005,0.3653c0.1682,0.1766,0.1568,0.3714,0.0034,0.5492
	c-0.1645,0.1908-0.3712,0.1644-0.5447,0.0318c-0.3056-0.2334-0.6058-0.4777-0.8822-0.7443
	c-0.2291-0.221-0.4759-0.3119-0.7926-0.3038c-0.6576,0.0167-1.3165,0.023-1.9735-0.002c-0.3481-0.0132-0.6062,0.1028-0.8491,0.3361
	c-0.2444,0.2347-0.5188,0.4379-0.7759,0.6598c-0.194,0.1675-0.3978,0.2252-0.6031,0.0398c-0.1965-0.1774-0.168-0.4011,0.065-0.6547
	c0.0457-0.0497,0.1026-0.089,0.1527-0.1349c0.362-0.332,0.3586-0.3299,0.0751-0.7556c-0.1792-0.269-0.2701-0.5589-0.2681-0.8942
	c0.011-1.8377,0.0003-3.6756,0.0079-5.5133c0.0035-0.8322,0.4233-1.2801,1.2734-1.3355c0.2554-0.0167,0.3529-0.098,0.412-0.3338
	c0.0639-0.2551,0.2253-0.453,0.5257-0.442c0.2807,0.0102,0.4902,0.1676,0.538,0.4331c0.053,0.2945,0.2363,0.2811,0.4463,0.2826
	c0.194,0.0013,0.342-0.0173,0.3948-0.2618C8.1465,2.1587,8.3576,1.989,8.6718,2.0032c0.2988,0.0134,0.448,0.2297,0.4919,0.4837
	c0.0505,0.2921,0.2377,0.2677,0.4463,0.2837c0.7858,0.0605,1.2176,0.5215,1.2261,1.3201
	C10.846,5.0208,10.8384,5.9511,10.8387,6.8813z M7.6702,4.3047c-0.5651,0-1.1303-0.0068-1.6952,0.0019
	C5.4275,4.3151,5.3191,4.431,5.3077,4.9947C5.3014,5.311,5.3034,5.6276,5.3073,5.944c0.0079,0.637,0.093,0.7241,0.7575,0.7354
	c0.5423,0.0092,1.0849,0.002,1.6274,0.0019c0.5651,0,1.1306,0.014,1.6951-0.0045c0.5223-0.0172,0.6219-0.1318,0.633-0.6532
	c0.0077-0.3615,0.0099-0.7235-0.0005-1.0849c-0.0145-0.5085-0.1313-0.6233-0.6545-0.6319C8.8005,4.2975,8.2353,4.3047,7.6702,4.3047
	z M7.702,3.1108c0,0.006,0,0.012,0,0.018c-0.2703,0-0.5436-0.0249-0.8099,0.0078C6.6772,3.1629,6.519,3.3129,6.5148,3.5498
	C6.5101,3.8111,6.6945,3.9,6.9176,3.9062c0.473,0.013,0.9467,0.024,1.4195,0.0113c0.2255-0.006,0.4823-0.048,0.4741-0.3602
	c-0.008-0.3048-0.2267-0.4239-0.4996-0.4436C8.1094,3.099,7.9053,3.1108,7.702,3.1108z M6.5182,9.6213
	C6.5151,9.3002,6.2405,9.0202,5.9181,9.0095C5.5483,8.9971,5.2785,9.2674,5.2859,9.6427c0.0068,0.345,0.2517,0.6011,0.5855,0.6123
	C6.2192,10.2666,6.5216,9.9704,6.5182,9.6213z M9.4638,9.0104C9.1385,8.9949,8.8446,9.2462,8.8118,9.568
	c-0.0348,0.341,0.2496,0.6708,0.5921,0.6869c0.3397,0.0159,0.6041-0.2167,0.6353-0.559C10.0741,9.3143,9.8337,9.0279,9.4638,9.0104z
	"/>
</svg>
